<svg xmlns="http://www.w3.org/2000/svg" viewBox="0 0 421.88 421.88"><defs><style>.cls-1{fill:#FFF;}.cls-2{fill:#575757;}</style></defs><title>Asset 5</title><g id="Layer_2" data-name="Layer 2"><g id="Background"><circle class="cls-1" cx="210.94" cy="210.94" r="210.94"/><path class="cls-2" d="M271.36,342.77H150.51A71.49,71.49,0,0,1,79.1,271.36V150.51A71.49,71.49,0,0,1,150.51,79.1H271.36a71.49,71.49,0,0,1,71.41,71.41V271.37A71.48,71.48,0,0,1,271.36,342.77ZM150.51,101.08a49.49,49.49,0,0,0-49.44,49.43V271.37a49.49,49.49,0,0,0,49.44,49.43H271.36a49.49,49.49,0,0,0,49.44-49.43V150.51a49.49,49.49,0,0,0-49.44-49.43Z"/><path class="cls-2" d="M210.94,276.86a65.92,65.92,0,1,1,65.92-65.92A66,66,0,0,1,210.94,276.86Zm0-109.87a43.95,43.95,0,1,0,43.94,43.95A44,44,0,0,0,210.94,167Z"/><path class="cls-2" d="M281,125.79a15.11,15.11,0,1,1-15.11,15.11A15.11,15.11,0,0,1,281,125.79Z"/></g></g></svg>